<?xml version="1.0" standalone="no"?>
<!DOCTYPE svg PUBLIC "-//W3C//DTD SVG 20010904//EN"
 "http://www.w3.org/TR/2001/REC-SVG-20010904/DTD/svg10.dtd">
<svg version="1.0" xmlns="http://www.w3.org/2000/svg"
 width="397.000000pt" height="397.000000pt" viewBox="0 0 397.000000 397.000000"
 preserveAspectRatio="xMidYMid meet">
<metadata>
Created by potrace 1.14, written by Peter Selinger 2001-2017
</metadata>
<g transform="translate(0.000000,397.000000) scale(0.100000,-0.100000)"
fill="#000000" stroke="none">
<path d="M3171 3253 c-6 -21 -11 -43 -11 -48 0 -6 -11 -27 -25 -47 -25 -37
-87 -73 -140 -82 -16 -2 -32 -5 -35 -6 -3 -1 20 -8 50 -16 30 -8 65 -21 77
-29 34 -23 71 -77 78 -115 7 -40 22 -60 29 -39 2 8 9 30 16 50 21 71 111 139
183 139 18 0 19 2 7 10 -8 5 -24 10 -34 10 -35 0 -101 39 -123 73 -13 18 -30
57 -38 85 -9 29 -18 52 -20 52 -2 0 -9 -17 -14 -37z"/>
<path d="M3712 3186 c-9 -25 -23 -38 -49 -49 -36 -14 -36 -15 -13 -22 35 -10
70 -45 71 -69 0 -17 3 -15 16 11 10 19 33 41 54 51 l39 19 -32 9 c-19 6 -37
21 -49 42 -24 46 -24 46 -37 8z"/>
<path d="M2797 3196 c-8 -19 15 -37 32 -26 17 10 7 40 -13 40 -7 0 -16 -6 -19
-14z"/>
<path d="M1391 3172 c-12 -22 3 -42 30 -42 19 0 34 33 24 50 -10 16 -44 11
-54 -8z"/>
<path d="M1012 3096 c-15 -59 -62 -112 -110 -124 -31 -8 -34 -10 -17 -16 83
-30 118 -64 132 -128 8 -39 18 -35 32 12 19 65 65 107 123 114 22 3 14 15 -15
20 -49 9 -82 45 -103 110 -10 31 -20 56 -24 56 -3 0 -11 -20 -18 -44z"/>
<path d="M1998 3085 c-2 -1 -34 -5 -73 -9 -311 -27 -681 -267 -861 -559 l-59
-97 -45 0 c-25 0 -184 -1 -354 -1 -170 0 -319 -5 -332 -9 -33 -13 -34 -72 -1
-87 13 -5 157 -9 349 -9 358 1 345 3 314 -56 -8 -15 -17 -40 -21 -57 -4 -20
-13 -31 -24 -31 -26 0 -42 -41 -27 -71 l12 -24 443 -3 c403 -2 446 -1 463 14
22 21 23 47 2 68 -13 14 -62 16 -385 16 -420 0 -390 -8 -341 90 24 49 30 55
60 56 17 1 32 0 32 -2 0 -2 -8 -19 -17 -39 -13 -28 -15 -38 -5 -44 26 -16 56
-4 73 29 10 18 23 38 29 44 7 7 160 10 464 11 485 0 486 0 486 50 0 12 -8 29
-18 38 -16 15 -71 16 -521 16 -277 0 -505 2 -507 4 -5 4 78 118 120 166 116
131 259 239 381 287 39 15 75 30 80 34 6 5 57 20 115 35 130 33 323 42 442 20
229 -41 410 -129 580 -281 33 -30 66 -54 72 -54 6 0 26 16 44 34 l33 33 -74
70 c-149 141 -395 268 -577 298 -19 3 -47 8 -62 11 -27 5 -285 14 -290 9z"/>
<path d="M1273 3024 c-7 -19 11 -39 26 -30 16 10 13 33 -4 40 -9 3 -18 -1 -22
-10z"/>
<path d="M691 2928 c-5 -14 -5 -28 1 -35 25 -31 82 2 61 35 -16 27 -52 27 -62
0z"/>
<path d="M2077 2933 c-1 -1 -34 -3 -72 -5 -39 -2 -76 -7 -83 -12 -6 -4 -12 -5
-12 -2 0 5 -117 -26 -190 -50 -69 -23 -110 -45 -104 -55 3 -5 -2 -6 -10 -3
-14 5 -77 -30 -84 -48 -2 -5 -8 -5 -14 -2 -6 4 -8 -2 -3 -17 4 -17 3 -20 -3
-10 -8 11 -19 7 -58 -20 -65 -46 -211 -195 -201 -205 2 -2 27 -5 55 -5 51 -2
53 0 114 61 137 136 329 235 531 273 89 17 263 15 342 -2 188 -43 376 -144
495 -265 30 -31 57 -56 61 -56 6 0 31 47 35 67 1 6 -13 28 -31 48 -23 27 -35
34 -40 25 -6 -9 -4 -11 5 -5 9 5 11 4 6 -3 -4 -7 -2 -12 5 -12 7 0 9 -3 6 -7
-11 -10 -46 27 -40 43 3 9 -1 14 -12 14 -10 0 -13 -5 -9 -12 4 -7 3 -8 -5 -4
-9 6 -9 12 1 24 7 10 9 14 4 10 -5 -4 -18 4 -28 18 -15 19 -23 22 -33 14 -10
-8 -15 -8 -21 1 -4 8 -3 9 4 5 7 -4 12 -3 12 2 0 16 -13 22 -25 12 -9 -7 -17
-5 -26 7 -13 16 -12 17 4 4 9 -7 17 -10 17 -5 0 5 -14 17 -32 27 -25 14 -33
15 -41 5 -6 -10 -7 -8 -3 4 3 10 1 20 -4 23 -5 3 -11 -3 -13 -12 -4 -17 -5
-17 -6 -1 -1 22 -54 51 -68 37 -15 -15 -43 0 -35 19 5 15 4 15 -11 3 -10 -8
-20 -11 -24 -7 -3 3 0 6 8 6 26 1 -36 27 -101 43 -60 15 -122 23 -223 29 -21
2 -39 2 -40 1z m67 -23 c-6 -6 -15 -5 -24 1 -13 9 -12 10 3 5 9 -3 17 0 17 6
0 6 3 8 7 5 4 -4 2 -12 -3 -17z m-109 0 c-3 -5 -12 -10 -18 -10 -7 0 -6 4 3
10 19 12 23 12 15 0z m-88 -16 c-3 -3 -12 -4 -19 -1 -8 3 -5 6 6 6 11 1 17 -2
13 -5z m310 0 c-3 -3 -12 -4 -19 -1 -8 3 -5 6 6 6 11 1 17 -2 13 -5z m-397
-20 c0 -2 -7 -4 -15 -4 -8 0 -15 4 -15 10 0 5 7 7 15 4 8 -4 15 -8 15 -10z
m-145 -34 c-3 -5 -12 -10 -18 -10 -7 0 -6 4 3 10 19 12 23 12 15 0z m820 -20
c3 -6 -1 -7 -9 -4 -18 7 -21 14 -7 14 6 0 13 -4 16 -10z m-970 -59 c-3 -6 -14
-10 -23 -10 -15 1 -15 2 1 6 9 2 17 9 17 15 0 6 3 9 6 5 3 -3 3 -10 -1 -16z
m1065 9 c0 -5 -2 -10 -4 -10 -3 0 -8 5 -11 10 -3 6 -1 10 4 10 6 0 11 -4 11
-10z m101 -67 c13 -16 12 -17 -3 -4 -17 13 -22 21 -14 21 2 0 10 -8 17 -17z
m-1261 -1 c0 -5 -13 -18 -28 -29 -21 -15 -29 -17 -29 -8 0 8 4 12 8 9 4 -2 13
5 19 16 11 20 30 28 30 12z m1375 -91 c-3 -6 3 -14 12 -20 10 -6 13 -11 7 -11
-15 0 -36 25 -27 33 10 10 15 8 8 -2z"/>
<path d="M2480 2850 c0 -5 5 -10 10 -10 6 0 10 5 10 10 0 6 -4 10 -10 10 -5 0
-10 -4 -10 -10z"/>
<path d="M508 2814 c-3 -5 -11 -27 -18 -49 -22 -70 -46 -94 -112 -112 l-59
-17 44 -11 c25 -6 56 -19 70 -27 24 -16 67 -94 67 -122 0 -36 18 -20 35 29 22
67 55 99 120 118 l50 14 -57 17 c-60 17 -86 41 -108 98 -6 18 -15 42 -19 52
-4 11 -10 16 -13 10z"/>
<path d="M3518 2815 c-2 -2 -29 -6 -61 -9 -159 -19 -328 -102 -431 -214 -48
-52 -62 -75 -100 -162 -26 -58 -29 -77 -32 -188 -3 -141 -16 -173 -89 -213
-22 -12 -54 -34 -71 -48 -17 -14 -41 -33 -53 -41 -38 -25 -180 -129 -301 -220
-64 -48 -125 -92 -137 -98 -12 -7 -27 -18 -35 -25 -7 -7 -69 -54 -138 -105
-371 -273 -348 -253 -380 -314 -40 -74 -14 -180 52 -211 105 -49 144 -33 316
136 74 73 176 173 227 222 51 50 195 191 321 315 387 380 371 370 497 325 136
-50 272 -30 409 58 88 56 203 198 253 311 53 120 83 292 65 371 -14 63 -74 94
-200 102 -36 2 -75 5 -87 7 -13 2 -24 2 -25 1z m-123 -49 c-97 -28 -161 -57
-237 -108 -125 -83 -190 -180 -232 -343 -3 -11 -3 3 0 30 12 110 98 239 213
320 89 61 248 124 316 124 11 0 -16 -11 -60 -23z m82 -110 c-184 -76 -365
-248 -423 -403 l-15 -38 5 56 c8 91 31 143 95 214 73 81 169 138 296 175 87
26 109 23 42 -4z m131 -266 c-46 -85 -132 -184 -170 -196 -10 -3 -18 -9 -18
-13 0 -17 -105 -53 -165 -56 -65 -4 -62 7 7 24 86 22 192 86 264 161 32 34 61
66 64 73 8 18 42 67 47 67 2 0 -11 -27 -29 -60z m-421 -256 c-3 -3 -12 -4 -19
-1 -8 3 -5 6 6 6 11 1 17 -2 13 -5z m-276 -47 c-9 -25 -31 -49 -84 -88 -40
-29 -74 -56 -77 -60 -3 -3 -48 -37 -101 -75 -52 -38 -154 -112 -225 -166 -71
-53 -189 -140 -262 -195 -74 -54 -180 -132 -235 -174 -158 -117 -203 -147
-185 -120 17 24 154 133 238 188 54 36 118 83 152 114 10 8 43 33 73 55 31 21
106 77 168 123 128 96 349 256 440 319 37 26 70 58 82 81 24 46 31 45 16 -2z
m-1039 -944 c24 -21 23 -58 -2 -83 -23 -23 -33 -24 -61 -9 -53 28 -34 108 25
109 11 0 28 -7 38 -17z"/>
<path d="M2068 2795 c-2 -1 -33 -5 -70 -9 -123 -11 -345 -98 -448 -175 -36
-27 -110 -98 -110 -106 0 -3 70 -5 155 -5 89 0 155 4 155 9 0 12 93 56 140 67
60 13 64 14 108 15 88 3 80 -42 -8 -47 -28 -1 -74 -11 -103 -21 l-52 -18 209
-3 c206 -2 209 -2 259 23 87 43 182 30 246 -35 53 -54 73 -100 70 -163 -3 -68
-17 -100 -67 -151 -65 -67 -162 -85 -244 -44 l-38 18 -1 -32 c-2 -81 -40 -149
-104 -185 -78 -44 -212 -16 -259 55 l-18 28 -317 -2 c-367 -2 -351 -1 -351
-13 0 -5 78 -9 173 -11 368 -4 353 -3 384 -26 33 -25 51 -82 37 -121 -12 -36
-69 -73 -109 -73 -43 0 -50 -21 -25 -71 30 -59 32 -125 5 -208 l-8 -25 30 25
c17 13 40 31 53 39 12 8 40 30 62 48 22 17 43 32 46 32 4 0 19 10 33 23 43 36
218 170 255 194 18 13 83 62 143 110 61 49 138 108 172 133 59 43 186 167 229
222 11 14 40 57 65 94 l44 68 -22 25 c-84 95 -139 139 -240 195 -87 48 -245
102 -322 110 -89 10 -153 14 -157 11z"/>
<path d="M851 2742 c-7 -18 -25 -36 -43 -43 l-30 -12 31 -13 c17 -7 37 -25 43
-40 l13 -27 5 24 c3 14 19 31 37 40 l32 16 -25 12 c-14 6 -31 25 -38 42 l-13
31 -12 -30z"/>
<path d="M206 2644 c-9 -23 -8 -24 13 -24 19 0 35 23 24 34 -12 11 -31 6 -37
-10z"/>
<path d="M2332 2474 c-41 -21 -77 -68 -87 -111 -16 -75 39 -161 117 -185 50
-15 107 2 155 46 30 27 36 41 40 83 7 68 -11 117 -54 150 -44 34 -122 42 -171
17z"/>
<path d="M1358 2238 c-21 -5 -21 -6 -3 -8 54 -6 508 -4 512 3 5 8 5 8 -271 10
-118 1 -225 -1 -238 -5z"/>
<path d="M2020 2239 c-37 -8 -89 -58 -91 -87 -1 -9 -2 -29 -3 -44 -9 -93 129
-171 211 -119 66 41 89 119 55 181 -35 63 -92 87 -172 69z m7 -50 c-11 -6 -27
-30 -38 -53 -10 -22 -19 -33 -19 -23 0 24 26 74 42 80 24 10 33 7 15 -4z"/>
<path d="M506 2154 c-21 -20 -20 -47 2 -67 25 -23 249 -23 275 0 21 20 22 47
1 67 -23 23 -255 23 -278 0z"/>
<path d="M187 2143 c-24 -23 6 -73 41 -67 6 1 16 2 20 3 4 0 9 17 10 36 3 34
1 35 -31 35 -19 0 -37 -3 -40 -7z"/>
<path d="M294 2123 c-5 -18 -2 -30 10 -38 17 -13 65 -9 67 6 1 5 2 15 3 22 4
21 -15 37 -45 37 -23 0 -30 -6 -35 -27z"/>
<path d="M1055 2008 c-4 -11 -11 -47 -14 -69 -1 -3 -45 -6 -98 -6 -81 -1 -99
-4 -110 -19 -19 -25 -16 -44 9 -71 12 -13 23 -29 24 -36 1 -6 4 -45 8 -84 l7
-73 -254 0 c-183 0 -256 -3 -265 -12 -15 -15 -16 -65 0 -74 13 -9 692 -12 727
-4 13 3 31 16 38 27 13 19 12 24 -6 42 -16 16 -34 21 -70 21 -56 0 -57 2 -67
115 l-7 70 374 -1 c320 -1 377 1 392 14 20 18 22 42 4 66 -13 17 -36 19 -325
19 l-312 0 0 43 c0 40 -2 44 -25 44 -14 0 -28 -6 -30 -12z"/>
<path d="M2413 1938 c-13 -6 -23 -15 -23 -20 0 -4 -4 -8 -10 -8 -5 0 -28 -18
-52 -40 -24 -22 -48 -40 -55 -40 -6 0 -65 -42 -130 -93 -65 -52 -140 -108
-168 -127 -27 -18 -54 -38 -60 -44 -24 -27 -368 -276 -388 -281 -12 -3 -136
-4 -274 -3 l-253 3 -14 -30 c-16 -33 -8 -60 21 -69 19 -5 262 -9 470 -7 l123
1 19 39 c22 42 82 96 202 181 43 30 126 92 186 137 59 45 146 111 192 145 46
35 91 70 99 78 8 8 47 38 85 65 81 58 97 77 81 102 -14 22 -24 24 -51 11z"/>
<path d="M149 1922 c-23 -16 -25 -55 -4 -72 10 -8 50 -12 122 -12 91 0 109 3
120 18 17 24 16 49 -2 64 -22 18 -211 19 -236 2z"/>
<path d="M592 1932 c-34 -3 -45 -8 -54 -26 -15 -35 5 -66 45 -67 134 -5 167 4
167 46 0 43 -41 55 -158 47z"/>
<path d="M3048 1862 c-7 -11 -16 -19 -20 -18 -16 3 -58 -46 -59 -69 -1 -14 -2
-28 -3 -32 -19 -93 -30 -133 -37 -133 -5 0 -9 -7 -9 -16 0 -16 -57 -124 -70
-134 -4 -3 -11 -12 -16 -21 -15 -27 -87 -111 -134 -157 -84 -83 -279 -193
-393 -224 -41 -11 -49 -10 -57 2 -16 24 -7 32 60 55 79 27 148 59 215 99 130
79 254 215 325 356 38 75 49 109 57 165 5 37 4 39 -13 25 -10 -8 -35 -31 -54
-50 -465 -455 -801 -772 -860 -811 -53 -36 -108 -51 -169 -48 -52 3 -75 12
-144 53 -33 19 -56 27 -75 23 -27 -5 -89 20 -109 45 -9 11 0 13 52 13 71 -1
67 -8 45 75 l-6 25 -640 2 c-691 1 -684 2 -684 -51 0 -51 -4 -51 532 -52 428
-1 500 -3 511 -16 43 -52 223 -160 338 -203 172 -63 239 -76 409 -80 180 -4
273 9 427 60 137 46 220 89 338 178 121 91 126 95 212 199 90 108 106 131 152
225 72 146 111 282 125 431 l6 63 -57 -3 -56 -3 -3 -40 c-22 -288 -149 -525
-399 -750 -106 -96 -334 -203 -514 -241 -50 -10 -239 -17 -296 -9 -94 11 -63
19 120 30 133 7 170 14 280 47 109 33 284 119 355 176 73 58 195 184 224 230
100 160 149 272 172 398 9 47 11 134 3 134 -13 0 -18 -29 -6 -34 9 -3 8 -5 -1
-5 -8 -1 -10 -6 -6 -13 4 -7 3 -9 -1 -5 -5 4 -9 33 -10 65 0 51 -2 57 -22 60
-12 2 -27 -5 -35 -16z"/>
<path d="M3682 1771 c-6 -17 -22 -36 -36 -43 -32 -14 -32 -20 -3 -33 12 -6 29
-25 38 -43 l17 -32 6 25 c4 15 22 35 42 47 l36 21 -30 13 c-26 11 -61 52 -53
62 2 2 1 6 -2 8 -3 3 -9 -9 -15 -25z"/>
<path d="M1420 1778 c-74 -13 -120 -58 -141 -138 -43 -165 137 -291 280 -197
166 110 58 370 -139 335z m-26 -76 c-33 -28 -51 -56 -65 -101 -7 -25 -7 -25
-8 -3 -2 39 26 91 61 112 45 27 49 25 12 -8z"/>
<path d="M3536 1756 c-3 -14 -15 -28 -26 -31 -11 -3 -20 -10 -20 -15 0 -5 9
-12 20 -15 11 -3 23 -17 26 -31 7 -29 34 -32 34 -5 0 11 10 27 23 36 21 15 21
17 4 26 -10 6 -22 22 -27 35 -12 31 -26 31 -34 0z"/>
<path d="M1041 1726 c-19 -22 2 -29 98 -32 90 -3 121 7 100 32 -16 20 -182 20
-198 0z"/>
<path d="M208 1639 c-11 -6 -18 -22 -18 -39 0 -25 5 -31 32 -38 49 -12 85 -4
90 21 8 45 -4 62 -47 64 -22 1 -48 -2 -57 -8z"/>
<path d="M3457 1567 c-24 -17 -12 -49 17 -45 15 2 21 10 21 27 0 29 -14 36
-38 18z"/>
<path d="M257 1513 c-19 -19 -10 -59 16 -70 18 -7 156 -10 213 -4 15 1 24 51
14 72 -12 22 -221 24 -243 2z"/>
<path d="M545 1503 c-8 -33 2 -60 23 -65 9 -2 101 -3 204 -3 l187 1 12 -28
c12 -30 11 -30 82 -32 51 -2 52 0 37 38 -8 22 -7 25 13 24 56 -2 77 3 87 23 9
16 8 26 -4 43 l-15 23 -310 0 -310 0 -6 -24z"/>
<path d="M3762 1488 c-17 -17 -15 -47 4 -55 23 -9 51 23 38 44 -14 22 -27 26
-42 11z"/>
<path d="M3551 1382 c-8 -20 -25 -36 -49 -45 l-37 -15 28 -11 c36 -14 52 -30
62 -61 8 -25 8 -25 22 8 9 21 25 38 46 47 l32 13 -28 13 c-16 7 -36 28 -46 47
l-18 34 -12 -30z"/>
<path d="M176 1304 c-12 -32 -6 -55 18 -64 50 -19 84 9 66 55 -8 20 -16 25
-44 25 -22 0 -36 -6 -40 -16z"/>
<path d="M306 1305 c-6 -18 2 -64 13 -66 59 -12 84 3 79 48 -3 25 -7 28 -44
31 -31 2 -43 -1 -48 -13z"/>
<path d="M447 1313 c-12 -11 -7 -60 7 -72 35 -29 92 13 75 57 -6 17 -16 22
-42 22 -19 0 -37 -3 -40 -7z"/>
<path d="M750 1282 c-41 -2 -80 -8 -87 -14 -16 -13 -17 -60 -1 -76 19 -19 193
-16 212 4 19 18 19 24 7 57 -11 29 -30 33 -131 29z"/>
<path d="M3340 1237 c-10 -21 -26 -36 -48 -43 l-33 -10 33 -15 c18 -8 40 -28
49 -46 l16 -31 12 33 c7 21 22 37 42 45 l31 13 -31 13 c-17 7 -36 26 -43 43
l-13 30 -15 -32z"/>
<path d="M3184 958 c-14 -68 -36 -98 -90 -123 -29 -14 -59 -25 -66 -26 -7 0
15 -9 48 -20 34 -10 66 -25 72 -31 6 -7 19 -39 30 -72 l20 -58 16 50 c21 63
54 96 111 112 25 7 45 16 45 19 0 4 -20 12 -45 19 -51 14 -98 68 -109 127 -9
44 -22 45 -32 3z"/>
<path d="M3382 981 c-19 -12 -11 -45 12 -49 24 -5 37 17 25 40 -11 20 -18 22
-37 9z"/>
<path d="M3636 902 c-4 -12 -17 -27 -28 -33 -20 -11 -20 -11 6 -35 14 -14 26
-30 26 -37 1 -7 7 -1 14 12 7 13 24 29 36 36 22 12 22 13 4 19 -11 3 -27 18
-35 33 -16 26 -17 26 -23 5z"/>
<path d="M1162 821 c-23 -14 -10 -46 21 -49 23 -3 27 0 27 21 0 14 -7 28 -16
31 -19 7 -16 8 -32 -3z"/>
<path d="M667 789 c-4 -14 -19 -31 -34 -38 -28 -13 -28 -13 -6 -22 12 -4 27
-16 34 -27 11 -17 13 -16 41 11 l29 29 -21 15 c-12 8 -25 25 -29 36 -8 20 -8
20 -14 -4z"/>
<path d="M827 780 c-3 -11 -18 -25 -33 -30 l-28 -11 32 -19 c18 -11 32 -27 32
-35 0 -8 5 -15 10 -15 6 0 10 4 10 8 0 15 36 52 51 53 8 0 4 5 -7 11 -12 5
-27 21 -35 34 -15 29 -25 30 -32 4z"/>
<path d="M2874 775 c-4 -9 -2 -21 4 -27 15 -15 44 -1 40 19 -4 23 -36 29 -44
8z"/>
</g>
</svg>
